<?xml version="1.0" encoding="utf-8"?>
<!-- Generator: Adobe Illustrator 27.5.0, SVG Export Plug-In . SVG Version: 6.00 Build 0)  -->
<svg version="1.1" xmlns="http://www.w3.org/2000/svg" xmlns:xlink="http://www.w3.org/1999/xlink" x="0px" y="0px"
	 viewBox="0 0 750 500" style="enable-background:new 0 0 750 500;" xml:space="preserve">
<g id="BACKGROUND">
	<rect style="fill:#EFE1B7;" width="750" height="500"/>
</g>
<g id="OBJECTS">
	<g>
		<g>
			<g>
				<polygon style="fill:#EFE1B7;" points="355.34,82.948 355.34,91.362 355.34,196.419 508.631,196.419 508.631,91.362 
					508.631,82.948 				"/>
				<rect x="351.543" y="89.371" style="fill:#FFF8E5;" width="153.291" height="105.058"/>
				<rect x="351.543" y="80.958" style="fill:#414182;" width="153.291" height="8.413"/>
				<circle style="fill:#A2ACF7;" cx="360.459" cy="85.24" r="1.926"/>
				<circle style="fill:#A2ACF7;" cx="370.925" cy="85.24" r="1.926"/>
				<circle style="fill:#A2ACF7;" cx="381.391" cy="85.24" r="1.926"/>
			</g>
			<g>
				<g>
					<rect x="358.14" y="97.735" style="fill:#A2ACF7;" width="2.785" height="91.627"/>
					<rect x="364.823" y="118.835" style="fill:#A2ACF7;" width="2.785" height="70.527"/>
					<rect x="371.507" y="129.818" style="fill:#A2ACF7;" width="2.785" height="59.543"/>
					<rect x="358.14" y="119.635" style="fill:#7279AE;" width="2.785" height="69.727"/>
					<rect x="364.823" y="135.692" style="fill:#7279AE;" width="2.785" height="53.67"/>
					<rect x="371.507" y="144.05" style="fill:#7279AE;" width="2.785" height="45.312"/>
					<rect x="358.14" y="149.924" style="fill:#414182;" width="2.785" height="39.438"/>
					<rect x="364.823" y="159.006" style="fill:#414182;" width="2.785" height="30.356"/>
					<rect x="371.507" y="163.733" style="fill:#414182;" width="2.785" height="25.628"/>
				</g>
				<g>
					<rect x="378.512" y="140.904" style="fill:#A2ACF7;" width="2.785" height="48.458"/>
					<rect x="385.196" y="152.063" style="fill:#A2ACF7;" width="2.785" height="37.299"/>
					<rect x="391.879" y="157.872" style="fill:#A2ACF7;" width="2.785" height="31.49"/>
					<rect x="378.512" y="152.486" style="fill:#7279AE;" width="2.785" height="36.876"/>
					<rect x="385.196" y="160.978" style="fill:#7279AE;" width="2.785" height="28.384"/>
					<rect x="391.879" y="165.398" style="fill:#7279AE;" width="2.785" height="23.963"/>
					<rect x="378.512" y="168.505" style="fill:#414182;" width="2.785" height="20.857"/>
					<rect x="385.196" y="173.308" style="fill:#414182;" width="2.785" height="16.054"/>
					<rect x="391.879" y="175.808" style="fill:#414182;" width="2.785" height="13.554"/>
				</g>
				<g>
					<rect x="411.978" y="118.835" style="fill:#A2ACF7;" width="2.785" height="70.527"/>
					<rect x="405.295" y="135.076" style="fill:#A2ACF7;" width="2.785" height="54.286"/>
					<rect x="398.611" y="143.53" style="fill:#A2ACF7;" width="2.785" height="45.832"/>
					<rect x="411.978" y="135.691" style="fill:#7279AE;" width="2.785" height="53.67"/>
					<rect x="405.295" y="148.051" style="fill:#7279AE;" width="2.785" height="41.311"/>
					<rect x="398.611" y="154.484" style="fill:#7279AE;" width="2.785" height="34.877"/>
					<rect x="411.978" y="159.006" style="fill:#414182;" width="2.785" height="30.356"/>
					<rect x="405.295" y="165.996" style="fill:#414182;" width="2.785" height="23.365"/>
					<rect x="398.611" y="169.635" style="fill:#414182;" width="2.785" height="19.727"/>
				</g>
			</g>
			<g>
				<g>
					<rect x="436.534" y="139.684" style="fill:#A2ACF7;" width="2.785" height="49.678"/>
					<rect x="443.218" y="151.124" style="fill:#A2ACF7;" width="2.785" height="38.238"/>
					<rect x="449.901" y="157.079" style="fill:#A2ACF7;" width="2.785" height="32.283"/>
					<rect x="436.534" y="151.557" style="fill:#7279AE;" width="2.785" height="37.804"/>
					<rect x="443.218" y="160.263" style="fill:#7279AE;" width="2.785" height="29.099"/>
					<rect x="449.901" y="164.795" style="fill:#7279AE;" width="2.785" height="24.567"/>
					<rect x="436.534" y="167.98" style="fill:#414182;" width="2.785" height="21.382"/>
					<rect x="443.218" y="172.904" style="fill:#414182;" width="2.785" height="16.458"/>
					<rect x="449.901" y="175.467" style="fill:#414182;" width="2.785" height="13.895"/>
				</g>
				<g>
					<rect x="456.907" y="163.089" style="fill:#A2ACF7;" width="2.785" height="26.273"/>
					<rect x="463.59" y="169.139" style="fill:#A2ACF7;" width="2.785" height="20.222"/>
					<rect x="470.273" y="172.289" style="fill:#A2ACF7;" width="2.785" height="17.073"/>
					<rect x="456.907" y="169.369" style="fill:#7279AE;" width="2.785" height="19.993"/>
					<rect x="463.59" y="173.973" style="fill:#7279AE;" width="2.785" height="15.389"/>
					<rect x="470.273" y="176.369" style="fill:#7279AE;" width="2.785" height="12.992"/>
					<rect x="456.907" y="178.054" style="fill:#414182;" width="2.785" height="11.308"/>
					<rect x="463.59" y="180.658" style="fill:#414182;" width="2.785" height="8.704"/>
					<rect x="470.273" y="182.013" style="fill:#414182;" width="2.785" height="7.348"/>
				</g>
				<g>
					<rect x="490.372" y="151.124" style="fill:#A2ACF7;" width="2.785" height="38.238"/>
					<rect x="483.689" y="159.929" style="fill:#A2ACF7;" width="2.785" height="29.433"/>
					<rect x="477.006" y="164.513" style="fill:#A2ACF7;" width="2.785" height="24.849"/>
					<rect x="490.372" y="160.263" style="fill:#7279AE;" width="2.785" height="29.099"/>
					<rect x="483.689" y="166.964" style="fill:#7279AE;" width="2.785" height="22.398"/>
					<rect x="477.006" y="170.452" style="fill:#7279AE;" width="2.785" height="18.91"/>
					<rect x="490.372" y="172.903" style="fill:#414182;" width="2.785" height="16.458"/>
					<rect x="483.689" y="176.693" style="fill:#414182;" width="2.785" height="12.668"/>
					<rect x="477.006" y="178.666" style="fill:#414182;" width="2.785" height="10.695"/>
				</g>
			</g>
		</g>
		<g>
			<g>
				<polygon style="fill:#EFE1B7;" points="469.779,105.082 469.779,113.495 469.779,358.177 718.11,358.177 718.11,113.495 
					718.11,105.082 				"/>
				<rect x="465.595" y="108.368" style="fill:#FFF8E5;" width="248.33" height="244.682"/>
				<rect x="465.595" y="99.954" style="fill:#414182;" width="248.33" height="8.413"/>
				<circle style="fill:#A2ACF7;" cx="474.51" cy="104.237" r="1.926"/>
				<circle style="fill:#A2ACF7;" cx="484.976" cy="104.237" r="1.926"/>
				<circle style="fill:#A2ACF7;" cx="495.442" cy="104.237" r="1.926"/>
			</g>
			<g>
				<g>
					<g>
						<path style="fill:#414182;" d="M472.122,347.224v-233.24h235.792v233.24H472.122z M472.584,114.227v232.754h234.869V114.227
							H472.584z"/>
					</g>
					<g>
						<rect x="696.756" y="114.105" style="fill:#414182;" width="0.462" height="232.997"/>
					</g>
					<g>
						<rect x="686.059" y="114.105" style="fill:#414182;" width="0.462" height="232.997"/>
					</g>
					<g>
						<rect x="675.362" y="114.105" style="fill:#414182;" width="0.461" height="232.997"/>
					</g>
					<g>
						<rect x="664.665" y="114.105" style="fill:#414182;" width="0.462" height="232.997"/>
					</g>
					<g>
						<rect x="653.969" y="114.105" style="fill:#414182;" width="0.461" height="232.997"/>
					</g>
					<g>
						<rect x="643.272" y="114.105" style="fill:#414182;" width="0.461" height="232.997"/>
					</g>
					<g>
						<rect x="632.575" y="114.105" style="fill:#414182;" width="0.462" height="232.997"/>
					</g>
					<g>
						<rect x="621.878" y="114.105" style="fill:#414182;" width="0.461" height="232.997"/>
					</g>
					<g>
						<rect x="611.181" y="114.105" style="fill:#414182;" width="0.462" height="232.997"/>
					</g>
					<g>
						<rect x="600.484" y="114.105" style="fill:#414182;" width="0.462" height="232.997"/>
					</g>
					<g>
						<rect x="589.788" y="114.105" style="fill:#414182;" width="0.461" height="232.997"/>
					</g>
					<g>
						<rect x="579.091" y="114.105" style="fill:#414182;" width="0.462" height="232.997"/>
					</g>
					<g>
						<rect x="568.394" y="114.105" style="fill:#414182;" width="0.462" height="232.997"/>
					</g>
					<g>
						<rect x="557.697" y="114.105" style="fill:#414182;" width="0.461" height="232.997"/>
					</g>
					<g>
						<rect x="547" y="114.105" style="fill:#414182;" width="0.462" height="232.997"/>
					</g>
					<g>
						<rect x="536.303" y="114.105" style="fill:#414182;" width="0.461" height="232.997"/>
					</g>
					<g>
						<rect x="525.607" y="114.105" style="fill:#414182;" width="0.461" height="232.997"/>
					</g>
					<g>
						<rect x="514.91" y="114.105" style="fill:#414182;" width="0.462" height="232.997"/>
					</g>
					<g>
						<rect x="504.213" y="114.105" style="fill:#414182;" width="0.461" height="232.997"/>
					</g>
					<g>
						<rect x="493.516" y="114.105" style="fill:#414182;" width="0.462" height="232.997"/>
					</g>
					<g>
						<rect x="482.819" y="114.105" style="fill:#414182;" width="0.462" height="232.997"/>
					</g>
					<g>
						<rect x="472.353" y="336.39" style="fill:#414182;" width="235.33" height="0.243"/>
					</g>
					<g>
						<rect x="472.353" y="325.799" style="fill:#414182;" width="235.33" height="0.243"/>
					</g>
					<g>
						<rect x="472.353" y="315.209" style="fill:#414182;" width="235.33" height="0.243"/>
					</g>
					<g>
						<rect x="472.353" y="304.618" style="fill:#414182;" width="235.33" height="0.243"/>
					</g>
					<g>
						<rect x="472.353" y="294.026" style="fill:#414182;" width="235.33" height="0.243"/>
					</g>
					<g>
						<rect x="472.353" y="283.436" style="fill:#414182;" width="235.33" height="0.243"/>
					</g>
					<g>
						<rect x="472.353" y="272.845" style="fill:#414182;" width="235.33" height="0.243"/>
					</g>
					<g>
						<rect x="472.353" y="262.254" style="fill:#414182;" width="235.33" height="0.243"/>
					</g>
					<g>
						<rect x="472.353" y="251.664" style="fill:#414182;" width="235.33" height="0.243"/>
					</g>
					<g>
						<rect x="472.353" y="241.073" style="fill:#414182;" width="235.33" height="0.243"/>
					</g>
					<g>
						<rect x="472.353" y="230.482" style="fill:#414182;" width="235.33" height="0.243"/>
					</g>
					<g>
						<rect x="472.353" y="219.892" style="fill:#414182;" width="235.33" height="0.243"/>
					</g>
					<g>
						<rect x="472.353" y="209.301" style="fill:#414182;" width="235.33" height="0.243"/>
					</g>
					<g>
						<rect x="472.353" y="198.71" style="fill:#414182;" width="235.33" height="0.243"/>
					</g>
					<g>
						<rect x="472.353" y="188.12" style="fill:#414182;" width="235.33" height="0.243"/>
					</g>
					<g>
						<rect x="472.353" y="177.529" style="fill:#414182;" width="235.33" height="0.243"/>
					</g>
					<g>
						<rect x="472.353" y="166.938" style="fill:#414182;" width="235.33" height="0.243"/>
					</g>
					<g>
						<rect x="472.353" y="156.347" style="fill:#414182;" width="235.33" height="0.243"/>
					</g>
					<g>
						<rect x="472.353" y="145.757" style="fill:#414182;" width="235.33" height="0.243"/>
					</g>
					<g>
						<rect x="472.353" y="135.165" style="fill:#414182;" width="235.33" height="0.243"/>
					</g>
					<g>
						<rect x="472.353" y="124.574" style="fill:#414182;" width="235.33" height="0.243"/>
					</g>
				</g>
				<g>
					<rect x="482.436" y="246.241" style="fill:#414182;" width="1.319" height="56.234"/>
					<rect x="479.325" y="255.882" style="fill:#414182;" width="7.543" height="36.95"/>
					<rect x="495.213" y="246.241" style="fill:#414182;" width="1.319" height="32.041"/>
					<rect x="492.101" y="251.734" style="fill:#7279AE;" width="7.543" height="21.053"/>
					<rect x="507.989" y="250.165" style="fill:#414182;" width="1.319" height="56.234"/>
					<rect x="504.877" y="259.807" style="fill:#414182;" width="7.543" height="36.95"/>
					<rect x="520.766" y="223.617" style="fill:#414182;" width="1.319" height="56.234"/>
					<rect x="517.654" y="233.259" style="fill:#414182;" width="7.543" height="36.95"/>
					<rect x="533.542" y="240.523" style="fill:#414182;" width="1.319" height="82.224"/>
					<rect x="530.43" y="254.621" style="fill:#7279AE;" width="7.543" height="54.028"/>
					<rect x="546.319" y="290.173" style="fill:#414182;" width="1.319" height="46.592"/>
					<rect x="543.207" y="298.162" style="fill:#414182;" width="7.543" height="30.615"/>
					<rect x="559.095" y="218.777" style="fill:#414182;" width="1.319" height="111.161"/>
					<rect x="555.983" y="237.837" style="fill:#7279AE;" width="7.543" height="73.042"/>
					<rect x="571.871" y="192.621" style="fill:#414182;" width="1.319" height="124.001"/>
					<rect x="568.759" y="206.578" style="fill:#414182;" width="7.543" height="96.087"/>
					<rect x="584.648" y="195.5" style="fill:#414182;" width="1.319" height="56.234"/>
					<rect x="581.536" y="205.142" style="fill:#7279AE;" width="7.543" height="36.95"/>
					<rect x="597.424" y="209.719" style="fill:#414182;" width="1.319" height="56.234"/>
					<rect x="594.312" y="219.362" style="fill:#7279AE;" width="7.543" height="36.95"/>
					<rect x="610.2" y="246.241" style="fill:#414182;" width="1.319" height="41.683"/>
					<rect x="607.089" y="253.387" style="fill:#7279AE;" width="7.543" height="27.389"/>
					<rect x="622.977" y="246.241" style="fill:#414182;" width="1.319" height="76.506"/>
					<rect x="619.865" y="259.358" style="fill:#414182;" width="7.543" height="50.271"/>
					<rect x="635.753" y="234.144" style="fill:#414182;" width="1.319" height="56.234"/>
					<rect x="632.641" y="243.786" style="fill:#414182;" width="7.543" height="36.95"/>
					<rect x="648.53" y="218.138" style="fill:#414182;" width="1.319" height="46.592"/>
					<rect x="645.418" y="226.127" style="fill:#414182;" width="7.543" height="30.615"/>
					<rect x="670.743" y="155.123" style="fill:#414182;" width="1.319" height="76.507"/>
					<rect x="667.631" y="168.241" style="fill:#414182;" width="7.543" height="50.271"/>
					<rect x="683.52" y="153.384" style="fill:#414182;" width="1.319" height="45.876"/>
					<g>
						<defs>
							<rect id="SVGID_1_" x="680.408" y="161.25" width="7.543" height="30.145"/>
						</defs>
						<use xlink:href="#SVGID_1_"  style="overflow:visible;fill:#414182;"/>
						<clipPath id="SVGID_00000107576988360125991740000010683664782925564818_">
							<use xlink:href="#SVGID_1_"  style="overflow:visible;"/>
						</clipPath>
						<path style="clip-path:url(#SVGID_00000107576988360125991740000010683664782925564818_);fill:#414182;" d="M498.936,251.734
							c-2.278,0-4.557,0-6.835,0c0,5.485,0,10.971,0,16.456c0,1.533,0,3.065,0,4.597c2.514,0,5.029,0,7.543,0
							c0-5.486,0-10.971,0-16.456c0-1.532,0-3.065,0-4.597C499.408,251.734,499.172,251.734,498.936,251.734z"/>
						<path style="clip-path:url(#SVGID_00000107576988360125991740000010683664782925564818_);fill:#414182;" d="M524.081,233.259
							c-2.142,0-4.285,0-6.427,0c0,4.801,0,9.602,0,14.402c0,4.791,0,9.582,0,14.373c0,2.725,0,5.45,0,8.175
							c2.514,0,5.029,0,7.543,0c0-4.801,0-9.602,0-14.402c0-4.791,0-9.582,0-14.373c0-2.725,0-5.45,0-8.175
							C524.825,233.259,524.453,233.259,524.081,233.259z"/>
						<path style="clip-path:url(#SVGID_00000107576988360125991740000010683664782925564818_);fill:#414182;" d="M536.419,254.621
							c-1.996,0-3.992,0-5.989,0c0,7.019,0,14.038,0,21.057c0,7.011,0,14.022,0,21.033c0,3.979,0,7.958,0,11.937
							c2.514,0,5.029,0,7.543,0c0-7.019,0-14.038,0-21.057c0-7.011,0-14.022,0-21.033c0-3.979,0-7.958,0-11.937
							C537.455,254.621,536.937,254.621,536.419,254.621z"/>
						<path style="clip-path:url(#SVGID_00000107576988360125991740000010683664782925564818_);fill:#414182;" d="M549.796,298.162
							c-2.196,0-4.393,0-6.59,0c0,3.887,0,7.775,0,11.662c0,3.968,0,7.936,0,11.904c0,2.212,0,4.424,0,6.636
							c0.361,0.313,0.503,0.413,0.918,0.413c0.318,0,0.636,0,0.953,0c0.636,0,1.271,0,1.907,0c1.255,0,2.51,0,3.765,0
							c0-3.945,0-7.891,0-11.836c0-4.013,0-8.027,0-12.04c0-2.246,0-4.493,0-6.739C550.432,298.162,550.114,298.162,549.796,298.162
							z"/>
						<path style="clip-path:url(#SVGID_00000107576988360125991740000010683664782925564818_);fill:#414182;" d="M561.484,237.837
							c-1.833,0-3.667,0-5.501,0c0,4.717,0,9.435,0,14.153c0,4.778,0,9.556,0,14.334c0,4.773,0,9.546,0,14.319
							c0,4.757,0,9.515,0,14.272c0,4.732,0,9.463,0,14.195c0,0.589,0,1.179,0,1.768c2.514,0,5.029,0,7.543,0
							c0-4.718,0-9.435,0-14.153c0-4.778,0-9.556,0-14.334c0-4.773,0-9.546,0-14.319c0-4.758,0-9.515,0-14.272
							c0-4.732,0-9.463,0-14.195c0-0.59,0-1.179,0-1.768C562.845,237.837,562.164,237.837,561.484,237.837z"/>
						<path style="clip-path:url(#SVGID_00000107576988360125991740000010683664782925564818_);fill:#414182;" d="M587.963,205.142
							c-2.142,0-4.285,0-6.427,0c0,4.748,0,9.496,0,14.244c0,4.723,0,9.446,0,14.169c0,2.685,0,5.369,0,8.054
							c0.337,0.291,0.512,0.483,0.896,0.483c0.296,0,0.592,0,0.888,0c0.67,0,1.341,0,2.011,0c1.249,0,2.498,0,3.747,0
							c0-4.801,0-9.602,0-14.402c0-4.791,0-9.582,0-14.372c0-2.725,0-5.45,0-8.175C588.707,205.142,588.335,205.142,587.963,205.142
							z"/>
						<path style="clip-path:url(#SVGID_00000107576988360125991740000010683664782925564818_);fill:#414182;" d="M600.739,219.362
							c-2.142,0-4.285,0-6.427,0c0,4.748,0,9.496,0,14.244c0,4.723,0,9.446,0,14.169c0,2.685,0,5.37,0,8.054
							c0.337,0.291,0.512,0.483,0.896,0.483c0.296,0,0.592,0,0.888,0c0.67,0,1.341,0,2.011,0c1.249,0,2.498,0,3.747,0
							c0-4.801,0-9.602,0-14.402c0-4.791,0-9.582,0-14.372c0-2.725,0-5.45,0-8.175C601.483,219.362,601.111,219.362,600.739,219.362
							z"/>
						<path style="clip-path:url(#SVGID_00000107576988360125991740000010683664782925564818_);fill:#414182;" d="M613.761,253.387
							c-2.224,0-4.448,0-6.672,0c0,7.027,0,14.053,0,21.08c0,1.977,0,3.955,0,5.932c0.574,0.497,1.132,0.377,1.787,0.377
							c0.659,0,1.319,0,1.978,0c1.259,0,2.519,0,3.778,0c0-7.12,0-14.239,0-21.359c0-2.01,0-4.02,0-6.03
							C614.341,253.387,614.051,253.387,613.761,253.387z"/>
						<path style="clip-path:url(#SVGID_00000107576988360125991740000010683664782925564818_);fill:#414182;" d="M677.1,127.796
							c-2.357,0-4.715,0-7.072,0c0,3.868,0,7.736,0,11.604c0,3.871,0,7.742,0,11.613c0,2.173,0,4.347,0,6.52
							c0.365,0.316,0.503,0.407,0.924,0.407c0.314,0,0.628,0,0.941,0c0.633,0,1.267,0,1.9,0c1.259,0,2.518,0,3.778,0
							c0-3.925,0-7.85,0-11.775c0-3.928,0-7.857,0-11.785c0-2.195,0-4.389,0-6.584H677.1z"/>
					</g>
					<rect x="696.296" y="127.021" style="fill:#414182;" width="1.319" height="46.592"/>
					<rect x="693.184" y="135.009" style="fill:#414182;" width="7.543" height="30.614"/>
					<rect x="659.037" y="154.181" style="fill:#414182;" width="1.319" height="101.254"/>
					<g>
						<path style="fill:#414182;" d="M479.325,256.542c0,4.729,0,9.457,0,14.186c0,4.721,0,9.441,0,14.162c0,2.647,0,5.295,0,7.942
							h7.543c0-4.822,0-9.645,0-14.467c0-4.798,0-9.596,0-14.394c0-2.696,0-5.393,0-8.089h-7.543V256.542z"/>
						<path style="fill:#414182;" d="M504.877,260.466c0,4.729,0,9.457,0,14.186c0,4.721,0,9.441,0,14.162c0,2.647,0,5.295,0,7.942
							h7.543c0-4.822,0-9.645,0-14.467c0-4.798,0-9.596,0-14.394c0-2.696,0-5.393,0-8.089h-7.543V260.466z"/>
						<path style="fill:#414182;" d="M568.759,208.294c0,6.201,0,12.402,0,18.603c0,6.096,0,12.192,0,18.288
							c0,6.073,0,12.146,0,18.219c0,6.216,0,12.431,0,18.647c0,6.16,0,12.319,0,18.479c0,0.712,0,1.424,0,2.136h7.543
							c0-6.283,0-12.566,0-18.849c0-6.268,0-12.536,0-18.804c0-6.256,0-12.511,0-18.767c0-6.246,0-12.491,0-18.737
							c0-6.238,0-12.476,0-18.714c0-0.739,0-1.477,0-2.216h-7.543V208.294z"/>
						<path style="fill:#414182;" d="M619.865,260.256c0,6.402,0,12.803,0,19.205c0,6.457,0,12.914,0,19.371
							c0,3.599,0,7.198,0,10.797h7.543c0-6.566,0-13.133,0-19.699c0-6.54,0-13.081,0-19.621c0-3.65,0-7.3,0-10.95h-7.543V260.256z"
							/>
						<path style="fill:#414182;" d="M632.641,244.446c0,4.729,0,9.457,0,14.186c0,4.721,0,9.441,0,14.162c0,2.647,0,5.295,0,7.942
							h7.543c0-4.822,0-9.645,0-14.467c0-4.798,0-9.596,0-14.394c0-2.696,0-5.392,0-8.089h-7.543V244.446z"/>
						<path style="fill:#414182;" d="M645.418,226.673c0,3.891,0,7.782,0,11.673c0,3.936,0,7.871,0,11.806c0,2.196,0,4.392,0,6.589
							h7.543c0-3.99,0-7.98,0-11.97c0-3.986,0-7.973,0-11.959c0-2.228,0-4.457,0-6.685h-7.543V226.673z"/>
						<path style="fill:#414182;" d="M667.631,169.139c0,6.402,0,12.803,0,19.205c0,6.457,0,12.914,0,19.371
							c0,3.599,0,7.198,0,10.797h7.543c0-6.566,0-13.133,0-19.7c0-6.54,0-13.081,0-19.621c0-3.65,0-7.3,0-10.95h-7.543V169.139z"/>
						<path style="fill:#414182;" d="M693.184,135.009c0,3.99,0,7.98,0,11.97c0,3.986,0,7.973,0,11.959c0,2.228,0,4.457,0,6.685
							h7.543c0-3.99,0-7.98,0-11.97c0-3.986,0-7.973,0-11.959c0-2.228,0-4.457,0-6.685H693.184z"/>
					</g>
					<rect x="655.925" y="165.624" style="fill:#7279AE;" width="7.543" height="74.866"/>
				</g>
			</g>
		</g>
		<g>
			<g>
				<polygon style="fill:#EFE1B7;" points="249.02,186.761 249.02,195.175 249.02,347.502 407.38,347.502 407.38,195.175 
					407.38,186.761 				"/>
				<rect x="245" y="192.818" style="fill:#FFF8E5;" width="158.36" height="152.328"/>
				<rect x="245" y="184.405" style="fill:#414182;" width="158.36" height="8.413"/>
				<circle style="fill:#A2ACF7;" cx="253.915" cy="188.687" r="1.926"/>
				<circle style="fill:#A2ACF7;" cx="264.381" cy="188.687" r="1.926"/>
				<circle style="fill:#A2ACF7;" cx="274.847" cy="188.687" r="1.926"/>
			</g>
			<g>
				<g style="opacity:0.29;">
					<g>
						<path style="fill:#414182;" d="M398.798,341.018H252.032V200.889h146.766V341.018z M252.458,340.592h145.914V201.315H252.458
							V340.592z"/>
					</g>
					<g>
						<rect x="252.245" y="317.308" style="fill:#414182;" width="146.34" height="0.426"/>
					</g>
					<g>
						<rect x="252.245" y="294.024" style="fill:#414182;" width="146.34" height="0.426"/>
					</g>
					<g>
						<rect x="252.245" y="270.74" style="fill:#414182;" width="146.34" height="0.426"/>
					</g>
					<g>
						<rect x="252.245" y="247.456" style="fill:#414182;" width="146.34" height="0.426"/>
					</g>
					<g>
						<rect x="252.245" y="224.173" style="fill:#414182;" width="146.34" height="0.426"/>
					</g>
					<g>
						<rect x="373.982" y="201.102" style="fill:#414182;" width="0.426" height="139.703"/>
					</g>
					<g>
						<rect x="349.592" y="201.102" style="fill:#414182;" width="0.426" height="139.703"/>
					</g>
					<g>
						<rect x="325.202" y="201.102" style="fill:#414182;" width="0.426" height="139.703"/>
					</g>
					<g>
						<rect x="300.812" y="201.102" style="fill:#414182;" width="0.426" height="139.703"/>
					</g>
					<g>
						<rect x="276.422" y="201.102" style="fill:#414182;" width="0.426" height="139.703"/>
					</g>
				</g>
				<g>
					<polygon style="fill:#000979;" points="252.333,340.865 252.157,340.745 281.82,297.155 293.999,304.538 328.239,238.109 
						328.325,238.138 345.211,243.757 351.198,262.197 366.632,258.24 370.568,230.035 370.598,230.009 398.515,205.666 
						398.655,205.826 370.768,230.143 366.823,258.41 366.754,258.428 351.057,262.454 351.026,262.358 345.041,243.925 
						328.344,238.369 294.084,304.838 281.882,297.442 					"/>
				</g>
				<path style="fill:#7279AE;" d="M284.458,297.457c0,1.287-1.044,2.331-2.331,2.331c-1.288,0-2.331-1.044-2.331-2.331
					c0-1.288,1.044-2.331,2.331-2.331C283.415,295.125,284.458,296.169,284.458,297.457z"/>
				<path style="fill:#7279AE;" d="M296.654,304.688c0,1.287-1.044,2.331-2.331,2.331c-1.287,0-2.331-1.044-2.331-2.331
					c0-1.288,1.044-2.331,2.331-2.331C295.61,302.357,296.654,303.4,296.654,304.688z"/>
				<path style="fill:#7279AE;" d="M330.859,238.802c0,1.288-1.044,2.331-2.331,2.331c-1.288,0-2.331-1.044-2.331-2.331
					c0-1.288,1.044-2.331,2.331-2.331C329.815,236.471,330.859,237.515,330.859,238.802z"/>
				<path style="fill:#7279AE;" d="M347.821,243.465c0,1.288-1.044,2.331-2.331,2.331c-1.288,0-2.331-1.044-2.331-2.331
					c0-1.288,1.044-2.331,2.331-2.331C346.777,241.134,347.821,242.177,347.821,243.465z"/>
				<path style="fill:#7279AE;" d="M353.848,262.389c0,1.288-1.044,2.331-2.331,2.331c-1.288,0-2.331-1.044-2.331-2.331
					s1.044-2.331,2.331-2.331C352.805,260.058,353.848,261.102,353.848,262.389z"/>
				<path style="fill:#7279AE;" d="M368.568,258.464c0,1.288-1.044,2.331-2.331,2.331s-2.331-1.044-2.331-2.331
					c0-1.288,1.043-2.331,2.331-2.331S368.568,257.177,368.568,258.464z"/>
				<path style="fill:#7279AE;" d="M373.23,230.007c0,1.288-1.044,2.331-2.331,2.331c-1.287,0-2.331-1.044-2.331-2.331
					c0-1.288,1.044-2.331,2.331-2.331C372.186,227.676,373.23,228.72,373.23,230.007z"/>
			</g>
		</g>
		<g>
			<g>
				<path style="fill:#3A3A4A;" d="M376.737,285.576c-1.99-8.968-3.635-17.76-9.061-26.23c-11.266-0.439-33.906,1.326-34.79,2.352
					c-2.1,2.438-13.931,19.176-14.408,25.792c-0.934,12.963,0.711,26.134,2.761,38.986c2.005,12.57,5.974,25.973,6.745,38.726
					c3.901,0.464,4.994,1.048,8.895,1.511c5.944-20.436,9.04-42.025,10.553-63.579c0.874,0.123,2.451,0.289,3.325,0.413
					c4.48,21.103,7.897,43.449,9.668,64.94c2.769,0.686,5.818,0.859,8.6,0.456c0.885-0.129,2.664-10.349,2.956-11.634
					c3.027-13.326,5.415-26.88,6.689-40.617C379.659,306.041,378.885,295.254,376.737,285.576z"/>
				<g>
					<path style="fill:#3A3A4A;" d="M370.483,359.141l-1.853-4.193c-8.507,4.641-15.72,12.461-20.195,21.893
						c-4.502,9.489-5.497,21.168-5.935,32.452c-0.168,4.333-0.255,8.609-0.426,12.679c2.367,1.296,3.348,1.731,5.995,2.024
						c1.185-3.605,2.43-7.187,3.707-10.755c5.361-14.983,11.514-29.633,18.442-43.826
						C371.796,366.181,371.895,362.337,370.483,359.141z"/>
					<path d="M363.802,367.58c-1.865-4.153-2.717-8.446-2.609-12.893c0.021-0.853-1.31-0.909-1.331-0.058
						c-0.114,4.69,0.832,9.192,2.799,13.571C363.019,368.995,364.156,368.37,363.802,367.58z"/>
					<path d="M359.527,365.256c-0.189-0.843-1.467-0.545-1.279,0.297l1.108,4.958c0.188,0.843,1.466,0.545,1.278-0.297
						L359.527,365.256z"/>
					<g>
						<path style="fill:#FFCCBC;" d="M349.66,435.961l-1.591-11.966l-5.995-2.024l-0.325,0.538
							C342.595,427.301,345.018,433.344,349.66,435.961z"/>
						<path style="fill:#796F7A;" d="M351.551,440.733c-0.345-0.672-0.686-1.345-1.028-2.019c-0.442-0.87-0.737-1.801-0.863-2.753
							l0,0c-4.642-2.618-7.065-8.661-7.911-13.452l-2.606,4.312c-0.281,0.464-0.358,0.891-0.305,1.29l-1.758,9.912l0.731,0.266
							l2.901-7.774c0.062,0.05,0.125,0.099,0.186,0.148c3.531,2.793,0.852,7.985,4.836,10.668c1.397,0.941,3.043,1.385,4.651,1.812
							c0.835,0.222,1.725,0.558,2.572,0.64C353.153,443.081,351.917,441.443,351.551,440.733z"/>
					</g>
					<path style="fill:#465066;" d="M347.344,421.578c-1.354-0.605-2.709-1.21-4.063-1.815c-0.457-0.204-0.688,0.507-0.233,0.71
						c1.354,0.605,2.709,1.21,4.063,1.815C347.568,422.492,347.8,421.781,347.344,421.578z"/>
				</g>
				<g>
					<path style="fill:#3A3A4A;" d="M335.67,355.234l-3.165-3.368c-6.184,7.405-10.071,17.402-10.882,27.988
						c-0.815,10.65,2.352,22.175,5.893,33.128c1.36,4.206,2.774,8.329,4.04,12.284c2.625,0.417,3.677,0.491,6.208-0.15
						c-0.173-3.863-0.281-7.725-0.357-11.585c-0.316-16.209,0.211-32.374,1.609-48.371
						C339.335,361.515,338.084,357.802,335.67,355.234z"/>
					<path d="M331.762,367.58c-1.866-4.153-2.717-8.446-2.609-12.893c0.021-0.853-1.31-0.909-1.331-0.058
						c-0.114,4.69,0.833,9.192,2.799,13.571C330.979,368.995,332.116,368.37,331.762,367.58z"/>
					<path d="M327.487,365.256c-0.188-0.843-1.466-0.545-1.278,0.297l1.108,4.958c0.188,0.843,1.466,0.545,1.278-0.297
						L327.487,365.256z"/>
					<g>
						<path style="fill:#FFCCBC;" d="M343.405,436.015l-5.641-10.899l-6.208,0.15l-0.11,0.628
							C333.895,430.186,338.23,435.126,343.405,436.015z"/>
						<path style="fill:#978B99;" d="M346.807,439.923c-0.552-0.523-1.099-1.049-1.648-1.574c-0.71-0.679-1.305-1.467-1.754-2.335
							l0,0c-5.174-0.889-9.51-5.829-11.96-10.12l-0.884,5.034c-0.095,0.542-0.017,0.978,0.171,1.341l1.85,10.1h0.763l-0.054-8.451
							c0.075,0.026,0.149,0.052,0.223,0.077c4.216,1.444,3.572,7.346,8.165,8.527c1.611,0.414,3.276,0.266,4.901,0.114
							c0.844-0.079,1.778-0.066,2.584-0.283C349.097,441.613,347.391,440.476,346.807,439.923z"/>
					</g>
					<path style="fill:#465066;" d="M336.303,423.193c-1.373-0.035-2.747-0.071-4.121-0.106c-0.49-0.013-0.456,0.748,0.035,0.761
						c1.373,0.035,2.747,0.071,4.12,0.106C336.828,423.967,336.794,423.206,336.303,423.193z"/>
				</g>
			</g>
			<g>
				<g>
					<path style="fill:#FFCCBC;" d="M418.294,252.231c-2.753,1.164-5.713,1.692-8.425,2.975c-1.313,0.621-0.193,2.581,1.117,1.962
						c2.7-1.276,5.676-1.812,8.425-2.974C420.746,253.629,419.62,251.67,418.294,252.231z"/>
					<g>
						<g>
							<path style="fill:#FFCCBC;" d="M362.162,264.037c13.352-1.054,26.343-2.887,39.303-5.509c-0.253-2.418-1.427-3.05-1.68-5.469
								c-12.421-0.429-27.215-1.214-40.399-1.512l-1.428,7.819C357.613,261.932,359.687,264.232,362.162,264.037z"/>
							<path style="fill:#393973;" d="M358.057,261.292c0.124,2.61,2.407,4.593,4.864,4.224l32.563-4.381l-1.259-9.587
								l-22.014-0.554l-14.723-1.749L358.057,261.292z"/>
						</g>
						<path style="fill:#393973;" d="M372.21,250.349l-2.088-30.084l-13.65,7.354l1.583,33.671c0.123,2.611,2.407,4.595,4.864,4.225
							l7.738-1.164L372.21,250.349z"/>
						<path style="fill:#1A1A33;" d="M369.708,249.636l-4.052,2.889c-0.779,0.556,0.065,1.868,0.844,1.312l4.052-2.889
							C371.332,250.393,370.487,249.081,369.708,249.636z"/>
					</g>
					<path style="fill:#FFCCBC;" d="M412.793,256.452c0.879-0.53,1.732-1.164,2.269-2.038c0.537-0.875,0.705-2.036,0.198-2.929
						c-0.594-1.048-1.888-1.447-3.07-1.678c-3.131-0.612-6.365-0.693-9.523-0.236c-2.021,0.292-4.242,0.974-5.201,2.777
						c-1.565,2.943,1.353,5.901,4.073,6.315C405.389,259.25,409.456,258.464,412.793,256.452z"/>
					<g>
						<g>
							<g>
								<g>
									<path style="fill:#FFFFFF;" d="M390.535,252.009h-18.938c-1.161,0-2.102,0.941-2.102,2.102h18.942h17.044l2.102-2.102
										H390.535z"/>
									<path style="fill:#BAADAD;" d="M437.866,223.358c-0.672-0.915-1.751-1.527-3.005-1.527h-34.044
										c-1.721,0-3.219,1.177-3.626,2.849l-6.654,27.33h18.678h23.048l6.224-25.565
										C438.762,225.315,438.489,224.206,437.866,223.358z"/>
									<path style="fill:#4E4E50;" d="M388.778,252.01h41.726l6.563-26.955c0.4-1.642-0.844-3.225-2.534-3.225h-35.475
										c-1.721,0-3.219,1.177-3.626,2.849L388.778,252.01z"/>
									
										<linearGradient id="SVGID_00000031904386896040900880000010159074172307067022_" gradientUnits="userSpaceOnUse" x1="413.415" y1="224.9483" x2="411.8894" y2="255.629">
										<stop  offset="0" style="stop-color:#414182"/>
										<stop  offset="1" style="stop-color:#7171E3"/>
									</linearGradient>
									<path style="fill:url(#SVGID_00000031904386896040900880000010159074172307067022_);" d="M433.426,222.833h-34.009
										c-1.648,0-3.081,1.138-3.471,2.754l-1.064,4.415l-0.757,3.141l-2.636,10.934l-1.913,7.933h39.946l0.172-0.713l1.847-7.66
										l1.484-6.155l2.791-11.578C436.193,224.34,435.02,222.833,433.426,222.833z"/>
								</g>
							</g>
							<path style="fill:#BAADAD;" d="M432.261,252.009c0,1.161-0.937,2.102-2.098,2.102h-24.682l0,0
								c0-1.161,0.941-2.102,2.102-2.102H432.261z"/>
						</g>
						<polyline style="fill:none;stroke:#FFFFFF;stroke-linecap:round;stroke-miterlimit:10;" points="391.195,249.508 
							396.284,243.08 398.025,246.026 408.336,232.501 410.88,237.992 416.505,235.179 419.451,238.929 426.548,229.09 
							429.762,231.072 433.512,228.35 						"/>
					</g>
					<path style="fill:#FFCCBC;" d="M413.778,251.284c-0.412,1.858-1.778,3.232-3.64,3.635c-1.419,0.307-0.845,2.49,0.575,2.183
						c2.578-0.557,4.663-2.614,5.234-5.193C416.26,250.495,414.092,249.864,413.778,251.284z"/>
				</g>
				<g>
					<g>
						<path style="fill:#978B99;" d="M379.968,297.765c0.756-3.586-10.658-45.53-14.036-58.407
							c2.582-6.339,7.525-15.65,2.787-21.756c-8.253-10.635-13.959-17.97-26.225-17.97c-4.307,0-9.862-0.227-13.569,2.126
							c-3.707,2.353-6.582,7.172-5.904,12.37c0.672,5.147,4.42,9.021,6.531,13.677c2.395,5.285,7.461,19.256,4.849,24.257
							c-4.992,9.558-17.322,31.277-16.879,34.583C335.368,299.382,360.152,303.834,379.968,297.765z"/>
						<path style="fill:#766D78;" d="M352.964,209.451c0.439,4.104-8.606-0.267-9.332-0.665c-2.238-1.227-4.19-2.796-5.981-4.626
							c-0.616-0.63-1.545,0.268-0.928,0.898c3.238,3.31,7.2,5.855,11.635,7.054c2.41,0.651,6.312,0.911,5.936-2.603
							C354.204,208.662,352.872,208.596,352.964,209.451z"/>
						<path style="fill:#766D78;" d="M375.723,295.987c-18.245,4.578-38.316,0.382-54.061-11.265
							c-0.708-0.523-1.358,0.598-0.656,1.117c16.02,11.85,36.533,16.099,55.088,11.443
							C376.91,297.077,376.544,295.78,375.723,295.987z"/>
					</g>
				</g>
				<g>
					<path style="fill:#414182;" d="M335.592,199.626c-3.485,1.265-9.694-0.025-12.255,2.602c-0.034,0.035-0.067,0.069-0.101,0.104
						c-5.676,5.831-5.747,15.275-0.273,21.917c0,0,9.487,18.084,11.438,24.606c-6.992,13.461-13.222,26.881-20.214,40.342
						c9.676,3.967,19.12,8.286,28.795,12.254c4.087-16.992,6.673-34.543,5.836-52.269
						C347.982,231.456,344.683,215.342,335.592,199.626z"/>
					<path style="fill:#1A1A33;" d="M341.123,269.481c-3.679-1.783-7.486-3.086-11.451-3.886c-0.966-0.195-1.309,1.267-0.338,1.463
						c3.835,0.774,7.516,2.001,11.08,3.728C341.311,271.22,342.025,269.918,341.123,269.481z"/>
					<path style="fill:#1A1A33;" d="M340.525,221.67c-2.602-2.023-8.328-5.266-8.681-8.823c-0.33-3.329,0.514-7.173,0.756-10.482
						c0.071-0.968-1.362-0.977-1.432-0.017c-0.209,2.862-0.431,5.722-0.628,8.585c-0.101,1.462-0.392,3.044,0.269,4.46
						c0.57,1.222,1.889,2.002,2.874,2.783c2.045,1.619,4.117,3.2,6.175,4.8C340.622,223.569,341.281,222.257,340.525,221.67z"/>
					<path style="fill:#1A1A33;" d="M342.408,239.508c-1.295-2.836-3.167-5.497-4.37-8.34c-0.73-1.728-0.794-1.96-0.033-3.752
						c0.663-1.56,1.825-3.029,2.691-4.467c0.485-0.805-0.788-1.583-1.269-0.783c-1.345,2.234-2.69,4.467-4.036,6.7
						c-0.129,0.214-0.104,0.55,0.033,0.768c5.243,8.346,9.036,17.391,11.323,26.989c0.229,0.96,1.592,0.572,1.363-0.388
						C346.74,250.489,344.867,244.894,342.408,239.508z"/>
				</g>
				<g>
					<path style="fill:#414182;" d="M350.241,200.819c8.166,5.881,20.014,67.031,18.571,101.458
						c4.872-0.182,9.671-1.624,13.768-4.06c-4-16.414-8.354-32.476-13.305-48.585c-1.711-5.568-1.532-11.435,0.485-16.688
						c0.353-0.919,0.669-1.843,0.933-2.768c0.989-3.463,1.262-7.261,0.117-10.797c-0.968-2.99-2.885-5.627-4.939-8.057
						C362.149,206.919,356.02,201.354,350.241,200.819z"/>
					<path style="fill:#1A1A33;" d="M363.347,212.525c-1.168-3.197-4.655-6.119-6.775-8.631c-0.634-0.751-1.597,0.317-0.967,1.064
						c1.556,1.843,3.133,3.669,4.668,5.531c1.242,1.507,2.036,2.585,1.722,4.57c-0.248,1.564-1.207,2.586-2.17,3.683
						c-0.611,0.696,0.446,1.786,1.058,1.088C362.588,217.888,364.419,215.461,363.347,212.525z"/>
					<path style="fill:#1A1A33;" d="M360.771,218.707c-0.704-0.673-1.673,0.389-0.967,1.064c2.433,2.324,4.281,4.494,4.562,8.039
						c0.198,2.498,0.063,5.042,0.075,7.537c0.026,5.277,0.053,10.555,0.079,15.832c0.005,0.979,1.437,0.994,1.432,0.017
						c-0.034-6.716-0.055-13.433-0.1-20.15C365.814,225.548,364.794,222.55,360.771,218.707z"/>
				</g>
				<g>
					<g>
						<path style="fill:#FFCCBC;" d="M363.679,241.332c3.762-1.848,8.69-2.901,13.29-3.184c2.039,2.191,5.023,5.321,3.736,7.522
							c-2.551,4.365-10.26,3.385-14.753,2.503L363.679,241.332z"/>
						<path style="fill:#FFCCBC;" d="M386.206,236.892c-3.911-0.04-7.612,0.608-11.168,1.869c-1.585,0.562,0.337,3.365,1.906,2.808
							c3.118-1.106,4.93-3.154,8.349-3.119C387.035,238.468,387.953,236.91,386.206,236.892z"/>
						<path style="fill:#FFCCBC;" d="M378.76,240.383c0.93-0.263,1.873-0.528,2.844-0.539c0.972-0.011,1.992,0.259,2.732,0.946
							c0.949,0.881,1.275,2.261,1.517,3.549c-0.26,0.177-0.55,0.099-0.818-0.084c-0.268-0.183-0.461-0.463-0.648-0.736
							c-0.345-0.505-0.689-1.009-1.034-1.514c-1.092,0.203-2.223,0.242-3.315,0.445c-0.396,0.074-0.812,0.146-1.198,0.005
							C378.202,242.223,378.483,241.008,378.76,240.383z"/>
						<path style="fill:#FFCCBC;" d="M378.316,242.543c0.931-0.263,1.873-0.528,2.845-0.539c0.972-0.011,1.992,0.259,2.731,0.946
							c0.949,0.881,1.275,2.261,1.517,3.549c-0.26,0.177-0.55,0.099-0.818-0.085c-0.268-0.183-0.462-0.463-0.648-0.736
							c-0.345-0.505-0.689-1.009-1.034-1.514c-1.092,0.203-2.223,0.241-3.315,0.445c-0.395,0.073-0.812,0.146-1.198,0.005
							C377.758,244.383,378.039,243.168,378.316,242.543z"/>
						<path style="fill:#FFCCBC;" d="M377.484,244.426c0.931-0.263,1.873-0.528,2.845-0.539c0.972-0.011,1.992,0.259,2.731,0.946
							c0.949,0.881,1.275,2.26,1.517,3.549c-0.26,0.177-0.55,0.099-0.818-0.085c-0.268-0.183-0.461-0.463-0.648-0.736
							c-0.345-0.505-0.689-1.009-1.034-1.514c-1.092,0.203-2.223,0.242-3.315,0.445c-0.396,0.074-0.812,0.146-1.198,0.005
							C376.926,246.266,377.206,245.051,377.484,244.426z"/>
					</g>
					<polygon style="fill:#FFCCBC;" points="363.679,241.332 340.396,250.538 344.504,260.807 365.952,248.174 					"/>
				</g>
				<path style="fill:#414182;" d="M354.662,243.887l3.88,9.921l-16.918,9.996c-3.459,2.044-7.919,0.306-9.083-3.539l-13.335-44.036
					l16.675,5.602l5.43,25.861L354.662,243.887z"/>
				<path style="fill:#1A1A33;" d="M354.013,244.072c-3.926,1.37-7.93,2.331-12.04,2.913c-1.837-8.348-3.674-16.695-5.511-25.043
					c-0.156-0.709-1.248-0.422-1.092,0.288l5.62,25.537c0.071,0.324,0.397,0.441,0.69,0.402c4.317-0.572,8.51-1.57,12.621-3.005
					C354.981,244.926,354.701,243.832,354.013,244.072z"/>
				<path style="fill:#1A1A33;" d="M357.872,253.807c-4.775,2.09-8.872,4.502-13.011,7.648c-2.835,2.155-6.953,4.097-9.914,0.959
					c-1.88-1.993-2.525-5.016-3.323-7.55c-3.661-11.626-6.629-23.595-10.29-35.221c-0.217-0.69-1.311-0.408-1.091,0.287
					l5.963,21.481c1.954,6.205,3.419,12.914,6.086,18.852c1.87,4.163,5.575,6.094,9.952,4.165c2.75-1.212,4.886-3.506,7.354-5.159
					c2.748-1.84,5.813-3.159,8.831-4.481C359.095,254.497,358.533,253.518,357.872,253.807z"/>
				<path style="fill:#1A1A33;" d="M353.796,256.23c-0.748-3.508-1.649-6.972-2.705-10.399c-0.213-0.691-1.306-0.409-1.092,0.287
					c1.056,3.428,1.957,6.892,2.705,10.399C352.856,257.227,353.947,256.94,353.796,256.23z"/>
				<path style="fill:#1A1A33;" d="M339.827,250.154c-0.596,1.464-1.12,2.952-1.573,4.466c-0.209,0.697,0.876,1.008,1.085,0.313
					c0.453-1.514,0.977-3.002,1.573-4.466C341.185,249.793,340.098,249.488,339.827,250.154z"/>
				<path style="fill:#1A1A33;" d="M338.275,249.686c-0.445,0.659-0.89,1.318-1.335,1.977c-0.408,0.604,0.563,1.181,0.968,0.581
					c0.445-0.659,0.89-1.318,1.335-1.977C339.65,249.663,338.68,249.086,338.275,249.686z"/>
				<path style="fill:#1A1A33;" d="M390.406,255.436c-0.129-0.714-1.221-0.425-1.091,0.288c0.239,1.319,0.359,2.641,0.369,3.981
					c0.005,0.725,1.134,0.741,1.128,0.013C390.801,258.278,390.664,256.853,390.406,255.436z"/>
			</g>
			<g>
				<g>
					<path style="fill:#BF360C;" d="M332.082,149.412c-5.238,2.583-9.206,6.851-11.505,11.502
						c-2.935,5.937-3.232,12.676-0.317,18.222c2.915,5.546,9.141,9.737,16.476,10.587c7.335,0.85,15.57-1.852,20.292-7.02
						c3.495-3.825,4.931-8.626,5.268-13.253c0.324-4.444-0.313-8.952-2.635-12.784C354.739,148.545,342.641,144.205,332.082,149.412
						z"/>
					<path style="fill:#BF360C;" d="M317.647,143.394c-2.898,1.829-4.829,4.795-5.7,8.003c-1.112,4.094-0.524,8.706,1.885,12.463
						c2.409,3.757,6.682,6.547,11.249,7.04c4.568,0.492,9.278-1.454,11.567-5.045c1.694-2.657,2.022-5.957,1.699-9.125
						c-0.31-3.042-1.212-6.117-3.064-8.709C331.357,142.528,323.489,139.707,317.647,143.394z"/>
				</g>
				<g>
					<g>
						<path style="fill:#FFCCBC;" d="M351.421,209.615c-0.478,0.219-1.045,0.211-1.566,0.049c-4.617-1.43-8.95-3.937-12.56-7.241
							c-0.736-0.674-0.792-1.813-0.103-2.457c0.003-0.003,0.007-0.006,0.01-0.009c3.854-3.607,1.978-10.675,1.187-16.075
							l12.212,4.025c-0.267,0.79-0.453,1.734-0.581,2.757c-0.308,2.531-0.221,5.593,0.028,8.343
							c0.348,3.793,1.007,6.988,1.374,7.367C352.333,207.306,352.831,208.968,351.421,209.615z"/>
						<path style="fill:#FFAB91;" d="M350.047,199.008c-0.152-0.093-0.303-0.193-0.455-0.286c-3.719-2.325-6.295-6.164-6.922-10.422
							l-0.01-0.06l7.358,2.424C349.71,193.195,349.798,196.258,350.047,199.008z"/>
						<g>
							<path style="fill:#FFCCBC;" d="M357.316,163.813c3.71,8.121,7.701,26.731-3.491,30.166c-3.631,1.115-7.807-0.51-10.775-3.146
								c-2.968-2.636-4.973-6.151-6.917-9.59c-1.423,0.032-3.047,0.158-4.415-0.324c-1.369-0.482-2.646-1.573-2.942-2.981
								c-0.296-1.409,0.741-2.993,2.169-2.911c9.303,0.533,16.512-9.604,20.543-17.734c0.047-0.094,3.909,3.529,4.254,3.954
								C356.414,162.077,356.908,162.921,357.316,163.813z"/>
						</g>
					</g>
					<path style="fill:#BF360C;" d="M348.713,166.008c-2.043-0.818-4.185-0.483-5.841,0.775c-0.662,0.503,0.297,1.478,0.953,0.979
						c1.299-0.987,2.984-1.117,4.551-0.49C349.188,167.597,349.518,166.33,348.713,166.008z"/>
					<path style="fill:#BF360C;" d="M359.247,166.007c-1.475-1.295-3.595-1.562-5.158-0.5c-0.683,0.464-0.004,1.644,0.687,1.175
						c1.06-0.719,2.5-0.692,3.543,0.223C358.975,167.481,359.909,166.588,359.247,166.007z"/>
					<path style="fill:#212121;" d="M348.125,171.248c-0.186-0.843-1.464-0.545-1.278,0.297c0.189,0.858,0.378,1.717,0.567,2.575
						c0.186,0.843,1.464,0.545,1.278-0.297C348.503,172.965,348.314,172.107,348.125,171.248z"/>
					<path style="fill:#212121;" d="M358.389,170.202c-0.186-0.843-1.464-0.545-1.278,0.297c0.189,0.858,0.378,1.717,0.567,2.575
						c0.186,0.843,1.464,0.545,1.278-0.297C358.767,171.919,358.578,171.061,358.389,170.202z"/>
					<path style="fill:#FFAB91;" d="M334.813,177.65c-1.018-1.484-2.859-2.004-4.361-1.129c-0.719,0.419-0.037,1.597,0.687,1.175
						c0.859-0.501,1.926-0.312,2.534,0.574C334.166,178.989,335.31,178.376,334.813,177.65z"/>
					<path style="fill:#212121;" d="M353.388,186.314c-1.955,0.061-3.751-0.741-5.081-2.251c-0.464-0.527-1.176,0.217-0.715,0.74
						c1.505,1.708,3.638,2.639,5.844,2.57C354.114,187.352,354.069,186.292,353.388,186.314z"/>
					<path style="fill:#FFAB91;" d="M357.781,178.224c-1.028-0.902-1.799-1.741-2.383-3.001c-0.21-0.452-0.908-0.187-0.697,0.269
						c0.444,0.958,1.008,1.824,1.769,2.575c0.669,0.661,1.26,1.078,0.819,2.104c-0.281,0.654-1.058,1.265-1.569,1.707
						c-0.358,0.31,0.116,0.932,0.478,0.619c0.773-0.669,2.552-2.107,2.325-3.324C358.441,178.737,358.094,178.498,357.781,178.224z"
						/>
				</g>
			</g>
		</g>
		<g>
			<g>
				<polygon style="fill:#EFE1B7;" points="44.126,71.497 44.126,79.91 44.126,163.549 207.629,163.549 207.629,79.91 
					207.629,71.497 				"/>
				<rect x="40.862" y="76.947" style="fill:#FFF8E5;" width="163.504" height="83.639"/>
				<rect x="40.862" y="68.534" style="fill:#414182;" width="163.504" height="8.413"/>
				<circle style="fill:#A2ACF7;" cx="49.777" cy="72.816" r="1.926"/>
				<circle style="fill:#A2ACF7;" cx="60.243" cy="72.816" r="1.926"/>
				<circle style="fill:#A2ACF7;" cx="70.71" cy="72.816" r="1.926"/>
			</g>
			<g>
				<g>
					<path style="fill:#424242;" d="M120.498,92.612H53.816c-0.669,0-1.212,0.543-1.212,1.212l0,0c0,0.669,0.543,1.212,1.212,1.212
						h66.682c0.669,0,1.212-0.543,1.212-1.212l0,0C121.71,93.155,121.168,92.612,120.498,92.612z"/>
					<path style="fill:#424242;" d="M120.498,97.214H53.816c-0.669,0-1.212,0.543-1.212,1.212l0,0c0,0.669,0.543,1.212,1.212,1.212
						h66.682c0.669,0,1.212-0.543,1.212-1.212l0,0C121.71,97.756,121.168,97.214,120.498,97.214z"/>
					<path style="fill:#424242;" d="M102.736,103.027c0-0.669-0.543-1.212-1.212-1.212H53.816c-0.669,0-1.212,0.543-1.212,1.212
						c0,0.669,0.543,1.212,1.212,1.212h47.708C102.193,104.239,102.736,103.697,102.736,103.027L102.736,103.027z"/>
				</g>
				<g>
					<g>
						<path style="fill:#414182;" d="M161.286,130.672c-14.043,0-25.467-11.424-25.467-25.467s11.424-25.467,25.467-25.467
							c14.042,0,25.467,11.424,25.467,25.467S175.329,130.672,161.286,130.672z M161.286,79.979
							c-13.909,0-25.225,11.316-25.225,25.226c0,13.909,11.316,25.225,25.225,25.225c13.91,0,25.226-11.316,25.226-25.225
							C186.512,91.295,175.196,79.979,161.286,79.979z"/>
					</g>
					<g>
						<path style="fill:#414182;" d="M161.286,137.532c-17.825,0-32.327-14.502-32.327-32.327s14.502-32.327,32.327-32.327
							c17.825,0,32.327,14.502,32.327,32.327S179.111,137.532,161.286,137.532z M161.286,73.119
							c-17.692,0-32.085,14.393-32.085,32.086s14.393,32.086,32.085,32.086c17.692,0,32.085-14.393,32.085-32.086
							S178.978,73.119,161.286,73.119z"/>
					</g>
					<path style="fill:#414182;" d="M161.286,105.205h21.174c0,11.615-9.558,21.174-21.174,21.174s-21.174-9.558-21.174-21.174
						s9.558-21.174,21.174-21.174c6.255,0,12.199,2.772,16.22,7.563L161.286,105.205z"/>
				</g>
			</g>
		</g>
		<g>
			<g>
				<polygon style="fill:#EFE1B7;" points="105.65,150.191 105.65,158.605 105.65,242.244 269.154,242.244 269.154,158.605 
					269.154,150.191 				"/>
				<rect x="102.387" y="155.642" style="fill:#FFF8E5;" width="163.504" height="83.639"/>
				<rect x="102.387" y="147.229" style="fill:#414182;" width="163.504" height="8.413"/>
				<circle style="fill:#A2ACF7;" cx="111.302" cy="151.511" r="1.926"/>
				<circle style="fill:#A2ACF7;" cx="121.768" cy="151.511" r="1.926"/>
				<circle style="fill:#A2ACF7;" cx="132.234" cy="151.511" r="1.926"/>
			</g>
			<g>
				<path style="fill:#424242;" d="M256.152,191.182H189.47c-0.669,0-1.212,0.543-1.212,1.212l0,0c0,0.669,0.543,1.212,1.212,1.212
					h66.682c0.669,0,1.212-0.543,1.212-1.212l0,0C257.364,191.724,256.822,191.182,256.152,191.182z"/>
				<path style="fill:#424242;" d="M256.152,195.783H189.47c-0.669,0-1.212,0.543-1.212,1.212l0,0c0,0.669,0.543,1.212,1.212,1.212
					h66.682c0.669,0,1.212-0.543,1.212-1.212l0,0C257.364,196.326,256.822,195.783,256.152,195.783z"/>
				<path style="fill:#424242;" d="M238.39,201.597c0-0.669-0.543-1.212-1.212-1.212H189.47c-0.669,0-1.212,0.543-1.212,1.212
					s0.543,1.212,1.212,1.212h47.708C237.847,202.809,238.39,202.266,238.39,201.597L238.39,201.597z"/>
			</g>
			<g>
				<g>
					<path style="fill:#414182;" d="M150.132,223.49c-14.043,0-25.467-11.424-25.467-25.467s11.424-25.467,25.467-25.467
						s25.467,11.424,25.467,25.467S164.174,223.49,150.132,223.49z M150.132,172.798c-13.909,0-25.225,11.316-25.225,25.225
						c0,13.91,11.316,25.226,25.225,25.226c13.91,0,25.226-11.316,25.226-25.226C175.358,184.114,164.042,172.798,150.132,172.798z"
						/>
				</g>
				<g>
					<path style="fill:#414182;" d="M150.132,230.35c-17.825,0-32.326-14.502-32.326-32.327c0-17.825,14.502-32.327,32.326-32.327
						c17.825,0,32.327,14.502,32.327,32.327C182.459,215.848,167.957,230.35,150.132,230.35z M150.132,165.937
						c-17.692,0-32.085,14.393-32.085,32.086s14.393,32.086,32.085,32.086c17.692,0,32.086-14.393,32.086-32.086
						S167.824,165.937,150.132,165.937z"/>
				</g>
				<path style="fill:#7279AE;" d="M150.132,198.023h21.174c0,11.616-9.558,21.174-21.174,21.174
					c-11.615,0-21.174-9.558-21.174-21.174c0-1.233,0.108-2.463,0.322-3.677L150.132,198.023z"/>
			</g>
		</g>
		<g>
			<g>
				<polygon style="fill:#EFE1B7;" points="58.146,252.613 58.146,261.026 58.146,344.665 221.649,344.665 221.649,261.026 
					221.649,252.613 				"/>
				<rect x="54.882" y="258.063" style="fill:#FFF8E5;" width="163.504" height="83.639"/>
				<rect x="54.882" y="249.65" style="fill:#414182;" width="163.504" height="8.413"/>
				<circle style="fill:#A2ACF7;" cx="63.797" cy="253.933" r="1.926"/>
				<circle style="fill:#A2ACF7;" cx="74.263" cy="253.933" r="1.926"/>
				<circle style="fill:#A2ACF7;" cx="84.729" cy="253.933" r="1.926"/>
			</g>
			<g>
				<path style="fill:#424242;" d="M134.518,294.276H67.836c-0.669,0-1.212,0.543-1.212,1.212l0,0c0,0.669,0.543,1.212,1.212,1.212
					h66.682c0.669,0,1.212-0.543,1.212-1.212l0,0C135.73,294.819,135.188,294.276,134.518,294.276z"/>
				<path style="fill:#424242;" d="M134.518,298.878H67.836c-0.669,0-1.212,0.543-1.212,1.212l0,0c0,0.669,0.543,1.212,1.212,1.212
					h66.682c0.669,0,1.212-0.543,1.212-1.212l0,0C135.73,299.42,135.188,298.878,134.518,298.878z"/>
				<path style="fill:#424242;" d="M116.756,304.691c0-0.669-0.543-1.212-1.212-1.212H67.836c-0.669,0-1.212,0.543-1.212,1.212
					c0,0.669,0.543,1.212,1.212,1.212h47.708C116.213,305.903,116.756,305.36,116.756,304.691L116.756,304.691z"/>
			</g>
			<g>
				<g>
					<path style="fill:#414182;" d="M175.306,323.895c-14.043,0-25.467-11.424-25.467-25.467c0-14.043,11.424-25.468,25.467-25.468
						c14.042,0,25.467,11.425,25.467,25.468C200.773,312.47,189.348,323.895,175.306,323.895z M175.306,273.202
						c-13.909,0-25.225,11.316-25.225,25.226c0,13.909,11.316,25.225,25.225,25.225c13.91,0,25.226-11.316,25.226-25.225
						C200.532,284.518,189.216,273.202,175.306,273.202z"/>
				</g>
				<g>
					<path style="fill:#414182;" d="M175.306,330.754c-17.825,0-32.326-14.501-32.326-32.326c0-17.825,14.502-32.327,32.326-32.327
						c17.825,0,32.327,14.502,32.327,32.327C207.633,316.253,193.131,330.754,175.306,330.754z M175.306,266.342
						c-17.692,0-32.085,14.394-32.085,32.086c0,17.692,14.393,32.085,32.085,32.085c17.692,0,32.085-14.393,32.085-32.085
						C207.391,280.736,192.998,266.342,175.306,266.342z"/>
				</g>
				<path style="fill:#A2ACF7;" d="M175.306,298.428h21.174c0,4.345-1.337,8.586-3.829,12.145c-2.492,3.559-6.02,6.266-10.103,7.752
					L175.306,298.428z"/>
			</g>
		</g>
		<g>
			<g>
				<g>
					<g>
						<path style="fill:#313748;" d="M115.225,422.437c1.334,7.19,3.372,14.602,4.063,21.883c0.05,0.529,0.053,1.128,0.037,1.762
							h15.513c0.006-0.02,0.011-0.039,0.017-0.059c5.13-17.368,10.292-34.903,11.565-52.967c0.552-7.837,0.332-15.905-2.443-23.255
							c-3.394-8.987-11.13-16.821-21.271-17.017c-4.653-0.09-9.234,1.636-12.419,5.029c-5.7,6.073-4.418,14.223-3.044,21.624
							C109.904,393.771,112.564,408.104,115.225,422.437z"/>
						<path style="fill:#434B62;" d="M127.945,407.405c-0.092,6.689-0.49,13.363-1.111,20.023c-0.335,3.587-0.757,7.159-1.232,10.73
							c-0.348,2.62-0.971,5.28-0.99,7.924h3.183c2.03-5.54,2.109-12.648,2.662-18.292c0.702-7.165,1.016-14.376,1.029-21.575
							c0.022-13.212-0.187-27.803-4.096-40.515c-0.279-0.906-1.885-0.658-1.859,0.297c0.181,6.764,1.366,13.504,1.809,20.263
							C127.801,393.296,128.043,400.354,127.945,407.405z"/>
						<path style="fill:#434B62;" d="M139.115,374.48c-3.43,5.216-6.171,11.006-8.995,16.614
							c-4.633-7.006-9.142-14.273-14.546-20.675c-0.496-0.588-1.555-0.015-1.187,0.719c4.156,8.296,9.713,16.011,14.743,23.793
							c0.685,1.059,2.065,0.476,2.536-0.389c3.345-6.143,7.14-12.29,9.826-18.753C142.076,374.384,139.973,373.174,139.115,374.48z"
							/>
						<path style="fill:#434B62;" d="M137.276,405.119c-3.087,3.424-5.467,7.595-7.466,11.836
							c-2.127-7.309-5.874-15.19-12.011-19.297c-0.43-0.288-1.122,0.151-0.842,0.674c1.967,3.675,4.664,6.88,6.542,10.631
							c2.044,4.083,3.517,8.346,4.428,12.821c0.303,1.49,2.298,1.691,2.907,0.304c2.395-5.454,5.597-10.271,8.562-15.399
							C140.242,405.223,138.424,403.845,137.276,405.119z"/>
						<path style="fill:#434B62;" d="M135.232,424.75c-2.629,4.005-5.018,8.188-7.42,12.346c-0.9-4.972-2.198-10.141-4.785-14.321
							c-0.302-0.488-1.011-0.064-0.951,0.421c0.758,6.069,2.784,11.984,3.662,18.072c0.157,1.091,1.825,1.626,2.448,0.596
							c3.165-5.24,6.487-10.433,9.388-15.825C138.293,424.703,136.059,423.49,135.232,424.75z"/>
					</g>
					<g>
						<path style="fill:#434B62;" d="M97.692,422.321c4.351,7.246,9.552,14.447,13.243,22.052c0.245,0.504,0.469,1.086,0.688,1.71
							h17.018c0.111-2.04-0.02-4.115-0.163-6.156c-1.464-20.878-2.961-41.949-8.883-62.022c-2.569-8.708-6.068-17.355-12.043-24.191
							c-5.975-6.836-14.783-11.664-23.842-11.07c-9.06,0.593-17.824,7.591-18.739,16.624c-0.713,7.037,3.062,13.661,6.703,19.725
							C80.347,393.435,89.019,407.878,97.692,422.321z"/>
						<path style="fill:#697599;" d="M96.191,378.256c3.342,7.432,6.456,14.977,9.2,22.65c2.603,7.28,4.87,14.666,6.889,22.128
							c1.087,4.018,2.073,8.057,3.002,12.115c0.818,3.573,1.218,7.375,2.837,10.673c0.052,0.107,0.123,0.178,0.188,0.26h1.971
							c0.261-0.247,0.455-0.569,0.492-0.945c0.71-7.33-2.546-16.119-4.42-23.176c-2.136-8.042-4.709-15.976-7.605-23.775
							c-5.315-14.314-11.438-30.027-20.807-42.211c-0.668-0.868-2.306,0.049-1.893,1.073
							C88.973,364.299,92.98,371.118,96.191,378.256z"/>
						<path style="fill:#697599;" d="M104.178,360.743c-1.605,7.033-2.234,14.41-3.025,21.623
							c-7.847-5.713-15.666-11.76-24.104-16.507c-0.775-0.436-1.689,0.613-0.994,1.259c7.853,7.303,16.986,13.411,25.577,19.803
							c1.169,0.87,2.428-0.319,2.589-1.446c1.139-8.003,2.764-16.191,3.06-24.275C107.345,359.443,104.58,358.983,104.178,360.743z"
							/>
						<path style="fill:#697599;" d="M114.569,394.66c-1.959,4.955-2.85,10.433-3.301,15.832
							c-5.256-7.054-12.499-14.073-20.803-16.039c-0.581-0.138-1.153,0.617-0.639,1.07c3.615,3.184,7.831,5.564,11.379,8.867
							c3.863,3.595,7.181,7.616,9.975,12.092c0.931,1.491,3.172,0.902,3.271-0.846c0.39-6.873,1.909-13.383,3.047-20.133
							C117.823,393.574,115.297,392.817,114.569,394.66z"/>
						<path style="fill:#697599;" d="M120.289,416.741c-1.228,5.399-2.125,10.893-3.045,16.366
							c-2.983-5.019-6.478-10.092-10.968-13.572c-0.525-0.407-1.121,0.339-0.859,0.84c3.273,6.265,7.857,11.85,11.268,18.087
							c0.611,1.118,2.633,1.022,2.891-0.344c1.31-6.952,2.808-13.917,3.77-20.927C123.584,415.452,120.676,415.042,120.289,416.741z
							"/>
					</g>
					<g>
						<path style="fill:#313748;" d="M88.837,446.082h24.953c-0.917-2.202-2.336-4.204-3.737-6.156
							c-10.566-14.708-21.244-29.543-34.728-41.633c-5.849-5.245-12.355-10.022-19.861-12.34c-7.506-2.318-16.186-1.87-22.587,2.684
							c-6.402,4.554-9.675,13.689-6.244,20.757c2.673,5.506,8.463,8.668,13.9,11.478c12.95,6.694,26.272,12.712,38.85,20.082
							C82.828,442.974,85.968,444.661,88.837,446.082z"/>
						<path style="fill:#434B62;" d="M75.319,421.687c5.225,4.177,10.251,8.586,15.129,13.163c2.627,2.465,5.188,4.991,7.716,7.557
							c1.172,1.189,2.289,2.475,3.475,3.676h4.463c-3.053-5.227-8.878-9.83-13.145-13.871c-5.228-4.951-10.728-9.624-16.405-14.051
							c-10.419-8.124-22.069-16.912-34.504-21.626c-0.887-0.336-1.676,1.084-0.906,1.65c5.452,4.008,11.501,7.207,17.11,11.005
							C64.089,413.143,69.811,417.284,75.319,421.687z"/>
						<path style="fill:#434B62;" d="M56.174,392.664c2.014,5.908,4.904,11.626,7.599,17.297c-8.375-0.64-16.88-1.54-25.251-1.201
							c-0.769,0.031-0.965,1.219-0.16,1.379c9.101,1.809,18.602,2.155,27.833,2.958c1.257,0.109,1.643-1.339,1.249-2.241
							c-2.798-6.411-5.323-13.179-8.779-19.265C57.915,390.267,55.67,391.185,56.174,392.664z"/>
						<path style="fill:#434B62;" d="M79.239,412.916c0.81,4.539,2.643,8.978,4.765,13.158c-7.076-2.806-15.599-4.682-22.607-2.356
							c-0.491,0.163-0.569,0.979,0.015,1.078c4.108,0.702,8.295,0.539,12.408,1.358c4.478,0.892,8.748,2.344,12.84,4.37
							c1.363,0.675,2.745-0.777,2.024-2.109c-2.836-5.238-4.676-10.722-6.906-16.209C81.141,410.638,78.937,411.228,79.239,412.916z
							"/>
						<path style="fill:#434B62;" d="M93.485,426.576c1.549,4.534,3.386,8.987,5.196,13.435c-4.478-2.34-9.356-4.487-14.244-5.009
							c-0.571-0.061-0.671,0.759-0.251,1.009c5.257,3.126,11.171,5.155,16.517,8.198c0.958,0.545,2.404-0.444,1.972-1.567
							c-2.195-5.715-4.257-11.524-6.735-17.123C95.326,424.13,92.998,425.149,93.485,426.576z"/>
					</g>
				</g>
			</g>
			<g>
				<g>
					<g>
						<path style="fill:#313748;" d="M176.581,446.082h10.523c0.524-4.079,1.617-8.204,2.363-12.219
							c1.65-8.891,3.3-17.781,4.951-26.671c0.852-4.591,1.647-9.646-1.888-13.413c-1.975-2.105-4.817-3.175-7.703-3.119
							c-6.29,0.121-11.089,4.98-13.194,10.555c-1.721,4.559-1.858,9.563-1.515,14.424
							C170.848,426.01,173.646,436.097,176.581,446.082z"/>
						<path style="fill:#434B62;" d="M180.995,446.082h2.422c-0.127-0.826-0.278-1.65-0.387-2.468
							c-0.295-2.215-0.557-4.431-0.764-6.655c-0.385-4.131-0.632-8.271-0.689-12.42c-0.06-4.373,0.09-8.752,0.375-13.116
							c0.275-4.192,1.01-8.372,1.122-12.568c0.016-0.593-0.98-0.746-1.153-0.184c-2.424,7.885-2.554,16.935-2.541,25.13
							c0.008,4.465,0.203,8.938,0.638,13.383C180.284,439.898,180.383,443.152,180.995,446.082z"/>
						<path style="fill:#434B62;" d="M174.648,404.117c2.127,3.235,3.828,6.827,5.579,10.305c2.874-4.345,5.67-8.853,9.022-12.824
							c0.308-0.365,0.964-0.009,0.736,0.446c-2.578,5.146-6.025,9.931-9.145,14.758c-0.425,0.657-1.281,0.295-1.573-0.241
							c-2.075-3.811-4.428-7.623-6.094-11.632C172.812,404.058,174.116,403.307,174.648,404.117z"/>
						<path style="fill:#434B62;" d="M175.789,423.122c1.915,2.124,3.391,4.711,4.631,7.342c1.319-4.534,3.643-9.422,7.45-11.969
							c0.266-0.178,0.696,0.094,0.522,0.418c-1.22,2.279-2.893,4.268-4.058,6.594c-1.268,2.533-2.181,5.177-2.746,7.952
							c-0.188,0.924-1.426,1.049-1.803,0.189c-1.486-3.383-3.472-6.371-5.311-9.552
							C173.949,423.186,175.077,422.332,175.789,423.122z"/>
						<path style="fill:#434B62;" d="M181.427,445.914c0.042,0.069,0.094,0.122,0.149,0.169h1.006
							c0.186-0.126,0.33-0.31,0.363-0.538c0.544-3.777,1.801-7.445,2.271-11.21c0.038-0.301-0.402-0.564-0.59-0.261
							c-1.605,2.593-2.41,5.799-2.968,8.883c-1.49-2.579-2.972-5.174-4.602-7.658c-0.513-0.782-1.899-0.03-1.453,0.8
							C177.404,439.442,179.464,442.664,181.427,445.914z"/>
					</g>
					<g>
						<path style="fill:#434B62;" d="M192.838,446.082c2.217-4.21,5.072-8.24,7.504-12.291c5.379-8.959,10.759-17.918,16.138-26.876
							c2.258-3.761,4.6-7.87,4.158-12.235c-0.568-5.603-6.004-9.943-11.623-10.311c-5.619-0.368-11.083,2.626-14.789,6.866
							c-3.706,4.24-5.876,9.603-7.47,15.005c-3.673,12.451-4.602,25.521-5.51,38.47c-0.032,0.455-0.062,0.913-0.086,1.371H192.838z"
							/>
						<path style="fill:#697599;" d="M188.501,446.082c0.382-1.423,0.604-2.907,0.931-4.334c0.576-2.517,1.188-5.022,1.862-7.515
							c1.252-4.628,2.658-9.21,4.273-13.725c1.702-4.76,3.633-9.439,5.706-14.049c1.991-4.428,4.477-8.657,6.294-13.154
							c0.257-0.635-0.76-1.204-1.174-0.666c-5.811,7.557-9.609,17.304-12.906,26.182c-1.797,4.838-3.393,9.759-4.717,14.747
							c-1.008,3.794-2.656,8.394-2.792,12.513H188.501z"/>
						<path style="fill:#697599;" d="M196.318,395.597c0.996,4.362,1.386,8.938,1.876,13.412c4.868-3.544,9.717-7.294,14.951-10.239
							c0.481-0.27,1.048,0.38,0.617,0.781c-4.871,4.53-10.536,8.318-15.865,12.283c-0.725,0.54-1.506-0.198-1.606-0.897
							c-0.707-4.964-1.714-10.043-1.898-15.057C194.354,394.79,196.069,394.505,196.318,395.597z"/>
						<path style="fill:#697599;" d="M189.873,416.634c1.215,3.074,1.768,6.471,2.047,9.82c3.26-4.376,7.752-8.729,12.903-9.948
							c0.36-0.085,0.715,0.383,0.397,0.664c-2.242,1.975-4.857,3.451-7.058,5.5c-2.396,2.23-4.454,4.724-6.187,7.5
							c-0.577,0.924-1.967,0.559-2.029-0.525c-0.242-4.263-1.184-8.301-1.89-12.488
							C187.855,415.961,189.422,415.491,189.873,416.634z"/>
						<path style="fill:#697599;" d="M186.325,430.331c0.762,3.349,1.318,6.757,1.888,10.151c1.85-3.113,4.018-6.26,6.803-8.418
							c0.325-0.252,0.695,0.21,0.533,0.521c-2.03,3.886-4.874,7.35-6.989,11.219c-0.379,0.693-1.633,0.634-1.793-0.213
							c-0.813-4.312-1.742-8.633-2.338-12.98C184.281,429.531,186.086,429.276,186.325,430.331z"/>
					</g>
					<g>
						<path style="fill:#313748;" d="M210.426,446.082c0.418-0.238,0.84-0.479,1.273-0.733c7.801-4.571,16.065-8.304,24.097-12.456
							c3.372-1.743,6.964-3.704,8.622-7.12c2.128-4.384,0.098-10.05-3.873-12.875c-3.971-2.825-9.354-3.103-14.01-1.665
							c-4.656,1.438-8.691,4.401-12.319,7.654c-8.363,7.499-14.987,16.701-21.54,25.823c-0.324,0.451-0.648,0.907-0.958,1.371
							H210.426z"/>
						<path style="fill:#434B62;" d="M200.217,446.082c1.514-1.534,3.047-3.045,4.618-4.52c3.025-2.839,6.143-5.574,9.384-8.165
							c3.416-2.731,6.965-5.299,10.587-7.752c3.478-2.355,7.23-4.34,10.612-6.826c0.478-0.351-0.012-1.232-0.562-1.024
							c-7.714,2.924-14.939,8.374-21.402,13.414c-3.521,2.746-6.933,5.644-10.176,8.715c-1.958,1.854-4.433,3.905-6.362,6.156
							H200.217z"/>
						<path style="fill:#434B62;" d="M226.094,415.396c-1.249,3.665-3.042,7.211-4.714,10.728c5.195-0.397,10.47-0.955,15.662-0.745
							c0.477,0.019,0.599,0.756,0.099,0.855c-5.645,1.122-11.538,1.337-17.264,1.835c-0.779,0.068-1.019-0.83-0.775-1.39
							c1.736-3.977,3.302-8.174,5.445-11.95C225.014,413.91,226.407,414.479,226.094,415.396z"/>
						<path style="fill:#434B62;" d="M211.788,427.958c-0.502,2.815-1.639,5.569-2.955,8.162c4.389-1.74,9.675-2.904,14.022-1.461
							c0.304,0.101,0.353,0.607-0.01,0.669c-2.548,0.435-5.145,0.334-7.697,0.842c-2.778,0.553-5.426,1.454-7.964,2.711
							c-0.845,0.418-1.703-0.482-1.256-1.308c1.759-3.249,2.9-6.651,4.284-10.054C210.608,426.545,211.975,426.911,211.788,427.958z
							"/>
						<path style="fill:#434B62;" d="M200.949,446.082c2.604-1.255,5.304-2.333,7.77-3.8c0.261-0.155,0.198-0.664-0.156-0.626
							c-3.032,0.324-6.058,1.656-8.835,3.107c1.122-2.759,2.262-5.521,3.223-8.333c0.303-0.885-1.142-1.518-1.523-0.656
							c-1.492,3.371-2.742,6.864-4.059,10.308H200.949z"/>
					</g>
				</g>
			</g>
			<g>
				<g>
					<g>
						<path style="fill:#313748;" d="M631.579,446.082h13.248c0.66-5.135,2.036-10.329,2.975-15.384
							c2.078-11.193,4.155-22.386,6.233-33.579c1.073-5.78,2.074-12.144-2.377-16.887c-2.487-2.65-6.065-3.997-9.698-3.927
							c-7.919,0.153-13.961,6.271-16.611,13.289c-2.167,5.739-2.339,12.04-1.908,18.16
							C624.36,420.811,627.883,433.51,631.579,446.082z"/>
						<path style="fill:#434B62;" d="M637.136,446.082h3.049c-0.16-1.04-0.35-2.077-0.487-3.107
							c-0.371-2.788-0.701-5.578-0.962-8.379c-0.485-5.201-0.795-10.413-0.867-15.636c-0.076-5.506,0.113-11.018,0.472-16.513
							c0.346-5.278,1.271-10.541,1.413-15.823c0.02-0.746-1.234-0.94-1.452-0.232c-3.052,9.927-3.216,21.321-3.199,31.639
							c0.01,5.622,0.255,11.253,0.803,16.849C636.24,438.297,636.365,442.393,637.136,446.082z"/>
						<path style="fill:#434B62;" d="M629.145,393.247c2.678,4.073,4.819,8.595,7.024,12.974
							c3.618-5.471,7.139-11.146,11.359-16.146c0.388-0.459,1.214-0.011,0.927,0.562c-3.246,6.479-7.585,12.504-11.513,18.58
							c-0.535,0.827-1.613,0.372-1.981-0.304c-2.612-4.797-5.576-9.597-7.673-14.645
							C626.833,393.173,628.475,392.228,629.145,393.247z"/>
						<path style="fill:#434B62;" d="M630.581,417.174c2.411,2.674,4.27,5.931,5.831,9.243c1.661-5.708,4.587-11.862,9.38-15.069
							c0.335-0.225,0.876,0.118,0.658,0.526c-1.536,2.87-3.643,5.373-5.109,8.302c-1.596,3.189-2.746,6.518-3.458,10.012
							c-0.237,1.164-1.795,1.32-2.271,0.238c-1.871-4.259-4.371-8.021-6.686-12.026C628.265,417.256,629.685,416.18,630.581,417.174
							z"/>
						<path style="fill:#434B62;" d="M637.68,445.87c0.052,0.087,0.118,0.153,0.187,0.213h1.267c0.234-0.158,0.415-0.39,0.457-0.678
							c0.686-4.755,2.268-9.373,2.86-14.113c0.047-0.379-0.507-0.71-0.743-0.329c-2.02,3.264-3.034,7.301-3.737,11.184
							c-1.875-3.247-3.741-6.514-5.794-9.642c-0.646-0.984-2.391-0.037-1.829,1.007C632.614,437.723,635.208,441.778,637.68,445.87z
							"/>
					</g>
					<g>
						<path style="fill:#434B62;" d="M652.045,446.082c2.792-5.3,6.386-10.374,9.448-15.474
							c6.773-11.279,13.545-22.559,20.318-33.838c2.843-4.735,5.792-9.908,5.235-15.404c-0.715-7.054-7.559-12.518-14.634-12.982
							c-7.075-0.463-13.953,3.307-18.619,8.645c-4.666,5.339-7.398,12.091-9.404,18.891c-4.625,15.676-5.794,32.131-6.937,48.435
							c-0.04,0.573-0.078,1.149-0.108,1.726H652.045z"/>
						<path style="fill:#697599;" d="M646.585,446.082c0.482-1.792,0.761-3.66,1.172-5.457c0.725-3.169,1.495-6.323,2.344-9.461
							c1.577-5.827,3.347-11.595,5.38-17.28c2.143-5.992,4.574-11.884,7.184-17.688c2.507-5.575,5.636-10.899,7.924-16.561
							c0.323-0.8-0.956-1.516-1.478-0.838c-7.317,9.514-12.098,21.785-16.249,32.964c-2.262,6.091-4.271,12.287-5.939,18.567
							c-1.269,4.776-3.344,10.568-3.515,15.755H646.585z"/>
						<path style="fill:#697599;" d="M656.428,382.52c1.254,5.492,1.745,11.253,2.362,16.886
							c6.128-4.462,12.234-9.184,18.824-12.891c0.605-0.34,1.319,0.479,0.776,0.983c-6.132,5.703-13.265,10.473-19.974,15.465
							c-0.913,0.68-1.897-0.249-2.022-1.13c-0.89-6.25-2.158-12.644-2.39-18.956C653.955,381.505,656.114,381.146,656.428,382.52z"
							/>
						<path style="fill:#697599;" d="M648.313,409.007c1.53,3.87,2.226,8.148,2.578,12.364c4.105-5.509,9.76-10.99,16.246-12.525
							c0.454-0.108,0.901,0.482,0.499,0.836c-2.823,2.486-6.115,4.345-8.886,6.924c-3.017,2.807-5.608,5.947-7.79,9.443
							c-0.727,1.164-2.477,0.704-2.554-0.66c-0.304-5.367-1.491-10.451-2.379-15.722
							C645.773,408.159,647.745,407.568,648.313,409.007z"/>
						<path style="fill:#697599;" d="M643.846,426.251c0.959,4.216,1.659,8.507,2.377,12.781c2.33-3.92,5.059-7.881,8.565-10.599
							c0.41-0.318,0.876,0.265,0.671,0.656c-2.556,4.892-6.136,9.254-8.799,14.125c-0.477,0.873-2.056,0.799-2.258-0.269
							c-1.023-5.429-2.193-10.869-2.944-16.343C641.273,425.244,643.545,424.923,643.846,426.251z"/>
					</g>
					<g>
						<path style="fill:#313748;" d="M674.189,446.082c0.526-0.299,1.057-0.603,1.603-0.923
							c9.822-5.755,20.226-10.455,30.339-15.683c4.246-2.195,8.768-4.664,10.855-8.964c2.679-5.519,0.123-12.653-4.876-16.21
							c-4.999-3.556-11.777-3.906-17.639-2.096c-5.862,1.81-10.942,5.541-15.51,9.637c-10.529,9.441-18.869,21.026-27.12,32.512
							c-0.408,0.567-0.815,1.141-1.206,1.726H674.189z"/>
						<path style="fill:#434B62;" d="M661.336,446.082c1.906-1.931,3.836-3.833,5.815-5.69c3.809-3.574,7.734-7.017,11.814-10.279
							c4.301-3.439,8.769-6.672,13.329-9.76c4.379-2.965,9.103-5.464,13.361-8.594c0.601-0.442-0.015-1.551-0.708-1.289
							c-9.711,3.681-18.809,10.544-26.945,16.888c-4.433,3.457-8.729,7.106-12.811,10.973c-2.465,2.335-5.581,4.916-8.01,7.751
							H661.336z"/>
						<path style="fill:#434B62;" d="M693.916,407.448c-1.573,4.614-3.83,9.079-5.934,13.507c6.54-0.5,13.182-1.202,19.719-0.938
							c0.6,0.024,0.754,0.952,0.125,1.077c-7.107,1.412-14.527,1.683-21.736,2.31c-0.981,0.085-1.283-1.045-0.975-1.75
							c2.185-5.007,4.157-10.292,6.855-15.045C692.556,405.577,694.31,406.293,693.916,407.448z"/>
						<path style="fill:#434B62;" d="M675.904,423.264c-0.632,3.545-2.064,7.011-3.721,10.276c5.526-2.191,12.181-3.656,17.654-1.84
							c0.383,0.127,0.444,0.764-0.012,0.842c-3.208,0.548-6.478,0.421-9.69,1.06c-3.497,0.696-6.832,1.831-10.027,3.413
							c-1.064,0.527-2.144-0.607-1.581-1.647c2.215-4.09,3.651-8.373,5.393-12.658C674.418,421.485,676.139,421.945,675.904,423.264
							z"/>
						<path style="fill:#434B62;" d="M662.258,446.082c3.279-1.58,6.677-2.937,9.783-4.784c0.328-0.195,0.25-0.836-0.196-0.788
							c-3.817,0.408-7.627,2.085-11.124,3.912c1.413-3.474,2.848-6.951,4.058-10.492c0.381-1.115-1.437-1.911-1.917-0.826
							c-1.878,4.244-3.452,8.642-5.11,12.978H662.258z"/>
					</g>
				</g>
			</g>
			<path style="fill:#414182;" d="M715.775,448.853H34.225c-1.472,0-2.666-1.194-2.666-2.666l0,0c0-1.472,1.193-2.666,2.666-2.666
				h681.551c1.472,0,2.666,1.194,2.666,2.666l0,0C718.441,447.659,717.248,448.853,715.775,448.853z"/>
		</g>
	</g>
</g>
</svg>
